<svg id="Layer_1" data-name="Layer 1" xmlns="http://www.w3.org/2000/svg" viewBox="0 0 2500 1700"><defs><style>.cls-1{fill:#838bc5;}.cls-2{fill:#f2f2f2;}.cls-3{fill:#2f2e41;}.cls-4{fill:#3f3d56;}.cls-5{fill:#4949e4;}.cls-6{fill:#ffb6b6;}.cls-7{fill:#e4e4e4;}.cls-8{fill:#cacaca;}.cls-9{fill:#fff;}.cls-10{fill:#a0616a;}.cls-11{opacity:0.1;isolation:isolate;}</style></defs><title>login-bg</title><ellipse class="cls-1" cx="2137.81" cy="1202.17" rx="178.39" ry="144"/><path class="cls-1" d="M540.87,107.17C388.56,168.81,282,376.11,323.34,505.47c37.8,118.22,191.56,147.59,183.83,243.86C503.08,800.26,459,805.2,403.59,890c-12.21,18.69-115.39,165.35-71.47,274.72,46.6,116,189.36,159.39,327.38,198.28,237.65,67,306.26,3.29,463.5,86.12,133.58,70.36,114.62,132.41,232.85,180.76,161.52,66.06,401.23,33.81,486.35-97.5,84.55-130.44-56.79-255,34.58-429.63C1942,978.22,2030.44,994.15,2137.3,865.23c110.81-133.69,218.76-395.83,78.39-605.2C2088.16,69.81,1841.53,6.15,1662.38,34.89c-218,35-220.79,180.2-426,219.34C927.31,313.18,767.17,15.58,540.87,107.17Z"/><path class="cls-2" d="M1903.46,1604.93c-15.83,8.54-22.63,26.66-22.63,26.66s18.87,4.28,34.71-4.26,22.63-26.66,22.63-26.66S1919.29,1596.4,1903.46,1604.93Z"/><path class="cls-2" d="M1908.67,1610.8c-9.28,15.42-27.7,21.35-27.7,21.35s-3.38-19.05,5.89-34.47,27.7-21.35,27.7-21.35S1917.94,1595.39,1908.67,1610.8Z"/><rect class="cls-3" x="2145.54" y="1260.66" width="56.18" height="33.26"/><path class="cls-4" d="M2089.88,1266h-29v-10.1a14.49,14.49,0,1,1,29,0Zm-28.32-.65h27.68v-9.45a13.84,13.84,0,0,0-27.68,0Z"/><polygon class="cls-4" points="2104.2 1264.64 2104.2 1260.69 2030.54 1262.66 2028.21 1362.65 2039.11 1376.11 2104.2 1264.64"/><polygon class="cls-5" points="2117.24 1263.25 2037.4 1265.06 2039.11 1376.11 2116.16 1367.81 2117.24 1263.25"/><polygon class="cls-6" points="2185.12 1623.04 2176.06 1623.04 2171.75 1588.08 2185.12 1588.08 2185.12 1623.04"/><path class="cls-3" d="M2187.43,1631.82h-29.22v-.37a11.37,11.37,0,0,1,11.37-11.37h17.85Z"/><polygon class="cls-6" points="2151.86 1623.04 2142.8 1623.04 2138.48 1588.08 2151.86 1588.08 2151.86 1623.04"/><path class="cls-3" d="M2154.17,1631.82H2125v-.37a11.37,11.37,0,0,1,11.37-11.37h17.85Z"/><path class="cls-3" d="M2125.24,1404.16s-13.24,28.52-1.28,85.91S2136,1610.48,2136,1610.48l18.3.3,10.27-135.66,5.38,133.74h18l15.88-131.63s10.45-58.77-12.85-69.29Z"/><path class="cls-7" d="M2188.62,1303.54l-40-3.7h0c-12.56,9.16-19.6,25.6-18.16,42.56,2,23,1.3,54.65-14.44,68.4,0,0,42.91,33.87,81,1.74,0,0-13-34.92-4.08-48.86S2205.09,1310.56,2188.62,1303.54Z"/><path class="cls-6" d="M2069.46,1246.7a7.94,7.94,0,0,0,7.06,8.74,8.17,8.17,0,0,0,1.4,0l52.87,49.34,9.48-14.43-55-44a8,8,0,0,0-15.85.29Z"/><path class="cls-7" d="M2120.92,1297.19l12.54-12.89a3.56,3.56,0,0,1,5-.06,3.17,3.17,0,0,1,.34.39l10.88,14.25a9.89,9.89,0,0,1-13.84,14.13l-14.49-10.45a3.56,3.56,0,0,1-.81-5,3.26,3.26,0,0,1,.34-.4Z"/><path class="cls-6" d="M2265.9,1366.87a7.93,7.93,0,0,0-7.53-8.33,8.09,8.09,0,0,0-1.39.06l-55.54-46.34-8.66,14.94,57.31,40.85a8,8,0,0,0,15.81-1.18Z"/><path class="cls-7" d="M2211.72,1319.33l-11.81,13.56a3.56,3.56,0,0,1-5,.35,3.32,3.32,0,0,1-.37-.38l-11.65-13.62a9.89,9.89,0,0,1,13-14.88l15,9.63a3.56,3.56,0,0,1,1.08,4.92,3.77,3.77,0,0,1-.31.42Z"/><path class="cls-4" d="M2271.55,1386.47h-21.94v-7.66a11,11,0,0,1,21.94,0Zm-21.46-.49h21v-7.17a10.49,10.49,0,0,0-21,0Z"/><polygon class="cls-4" points="2282.4 1385.41 2282.4 1382.42 2226.6 1383.92 2224.83 1459.65 2233.09 1469.85 2282.4 1385.41"/><polygon class="cls-5" points="2292.27 1384.36 2231.8 1385.74 2233.09 1469.85 2291.45 1463.56 2292.27 1384.36"/><circle class="cls-6" cx="2171.41" cy="1269.53" r="23.65"/><path class="cls-3" d="M2160.52,1259c8.18,8,22.42,8.79,31.42,1.7a53.07,53.07,0,0,1-11.3,50c5,1.81,10.76.62,15.24-2.26s7.79-7.29,10.29-12c6.19-11.64,7.74-25.84,3.36-38.26s-14.87-22.73-27.62-26.07-27.36.78-35.87,10.84c-8.91,10.51-10.35,25.91-6.45,39.13s12.46,24.56,21.86,34.63a144.93,144.93,0,0,1-8.91-36.15c-.47-4.24-.75-8.61.44-12.71s4.15-7.91,8.26-9.06"/><path class="cls-8" d="M2303.39,1633.21H2021.76a.74.74,0,1,1,0-1.47h281.63a.74.74,0,1,1,0,1.47Z"/><path class="cls-8" d="M1942.67,1633.21H1822.92a.74.74,0,1,1,0-1.47h119.75a.74.74,0,1,1,0,1.47Z"/><path class="cls-8" d="M2259.72,1569.05h-21.94v-7.66a11,11,0,1,1,21.94,0Zm-21.45-.49h21v-7.17a10.48,10.48,0,0,0-21,0Z"/><polygon class="cls-8" points="2270.57 1567.99 2270.57 1565 2214.77 1566.5 2213.01 1642.23 2221.26 1652.43 2270.57 1567.99"/><polygon class="cls-7" points="2280.45 1566.94 2219.97 1568.32 2221.26 1652.43 2279.63 1646.14 2280.45 1566.94"/><circle class="cls-5" cx="2396.37" cy="103.26" r="80.17"/><path class="cls-9" d="M2418.58,98.14V82.81a22.21,22.21,0,1,0-44.42,0V98.14a11.55,11.55,0,0,0-11,11.54v36.24h66.48V109.68A11.55,11.55,0,0,0,2418.58,98.14Zm-22.21-29.72a14.4,14.4,0,0,1,14.39,14.39V98.12H2382V82.81A14.39,14.39,0,0,1,2396.37,68.42Z"/><path class="cls-5" d="M2402.34,116.05A6,6,0,1,0,2393,121v13h6.72V121A6,6,0,0,0,2402.34,116.05Z"/><path class="cls-3" d="M621.42,980.89c-9.25,17.14-28.88,24.51-28.88,24.51s-4.63-20.45,4.62-37.6S626,943.29,626,943.29,630.66,963.74,621.42,980.89Z"/><path class="cls-5" d="M615.06,975.24c-16.69,10-23.12,30-23.12,30s20.63,3.66,37.33-6.38,23.12-30,23.12-30S631.76,965.2,615.06,975.24Z"/><rect class="cls-2" x="240.76" y="477.3" width="104.17" height="1.49"/><rect class="cls-2" x="269.03" y="478.42" width="1.49" height="13.76"/><rect class="cls-2" x="314.42" y="478.42" width="1.49" height="13.76"/><rect class="cls-2" x="187.93" y="548.73" width="104.17" height="1.49"/><rect class="cls-2" x="262.34" y="535.33" width="1.49" height="13.76"/><rect class="cls-2" x="216.95" y="535.33" width="1.49" height="13.76"/><rect class="cls-2" x="49.54" y="582.21" width="104.17" height="1.49"/><rect class="cls-2" x="123.94" y="568.82" width="1.49" height="13.76"/><rect class="cls-2" x="78.56" y="568.82" width="1.49" height="13.76"/><rect class="cls-2" x="59.96" y="927.44" width="104.17" height="1.49"/><rect class="cls-2" x="134.36" y="914.05" width="1.49" height="13.76"/><rect class="cls-2" x="88.97" y="914.05" width="1.49" height="13.76"/><rect class="cls-2" x="237.78" y="688.61" width="104.17" height="1.49"/><rect class="cls-2" x="312.19" y="675.21" width="1.49" height="13.76"/><rect class="cls-2" x="266.8" y="675.21" width="1.49" height="13.76"/><rect class="cls-2" x="205.04" y="867.92" width="104.17" height="1.49"/><rect class="cls-2" x="279.45" y="854.53" width="1.49" height="13.76"/><rect class="cls-2" x="234.06" y="854.53" width="1.49" height="13.76"/><rect class="cls-2" x="38.38" y="813.6" width="104.17" height="1.49"/><rect class="cls-2" x="112.78" y="800.21" width="1.49" height="13.76"/><rect class="cls-2" x="67.4" y="800.21" width="1.49" height="13.76"/><polygon class="cls-3" points="383.01 973.03 559.19 973.03 559.19 971.77 384.28 971.77 384.28 910.29 544.38 910.29 552.15 894.09 551.01 893.54 543.58 909.03 383.01 909.03 383.01 973.03"/><circle class="cls-4" cx="535.74" cy="990.78" r="13.31"/><circle class="cls-4" cx="404.56" cy="990.78" r="13.31"/><circle class="cls-4" cx="249.93" cy="708.13" r="8.24"/><path class="cls-3" d="M364.17,889.38h198l42.85-140H320l.26.82Zm197.08-1.27H365.1L321.77,750.59H603.32Z"/><polygon class="cls-2" points="379.62 882.09 553.56 882.09 591.19 757.88 340.87 757.88 341.09 758.61 379.62 882.09"/><polygon class="cls-3" points="316.49 736.81 317.71 736.49 309.35 704.96 260.7 704.96 260.7 706.23 308.38 706.23 316.49 736.81"/><rect class="cls-3" x="334.28" y="791.79" width="256.91" height="1.27"/><rect class="cls-3" x="348.99" y="838.48" width="227.91" height="1.27"/><rect class="cls-3" x="461.91" y="749.96" width="1.27" height="138.79"/><rect class="cls-3" x="408.44" y="749.81" width="1.27" height="139.08" transform="translate(-52.72 28.52) rotate(-3.75)"/><rect class="cls-3" x="446.47" y="818.72" width="139.08" height="1.27" transform="translate(-335.17 1280.98) rotate(-86.27)"/><rect class="cls-3" x="-14.26" y="1004.89" width="666.66" height="1.49"/><path class="cls-10" d="M209.39,496.62s-10.88,31-4.19,35.72S182.61,576,182.61,576l-35.14-9.53,19.25-32.54s2.51-32.55,2.51-37.31S209.39,496.62,209.39,496.62Z"/><path class="cls-11" d="M209.39,496.62s-10.88,31-4.19,35.72S182.61,576,182.61,576l-35.14-9.53,19.25-32.54s2.51-32.55,2.51-37.31S209.39,496.62,209.39,496.62Z"/><path class="cls-3" d="M227.64,717.29s3.18,39.68,0,60.32-7.93,77.79-7.93,77.79,0,108-17.47,109.54-30.16,3.17-31.75-3.18,7.94-9.52,3.18-12.7-6.35-14.29,0-27,0-141.28,0-141.28l-30.16,81s-3.18,66.67-6.35,76.2,3.17,27-7.94,28.58-23.81-7.94-30.16-11.12,9.52-3.17,6.35-4.76-12.7-6.35-9.53-7.94,6.35-77.79,6.35-77.79S111,702.2,122.07,695.85s18.26,4.59,18.26,4.59Z"/><path class="cls-3" d="M199.07,958.59v12.7s14.29,34.52,0,34.52-25.4,3.58-25.4-1.18V961.76Z"/><path class="cls-3" d="M105.41,958.57v12.7s-14.29,34.52,0,34.52,25.4,3.58,25.4-1.19V961.74Z"/><circle class="cls-10" cx="187.16" cy="491.06" r="28.58"/><path class="cls-5" d="M195.89,544.25s-7.93,23.81-20.63,19l-12.7-4.77L140.33,710.94s17.46,25.4,42.86,9.52S195.89,544.25,195.89,544.25Z"/><path class="cls-4" d="M173.67,539.48l-7.15-15.08s-42.06,19.85-48.41,26.2-6.35,15.87-6.35,15.87l11.11,39.69s-3.18,87.31-3.18,90.49-11.11,20.64-3.17,14.29,9.52-12.7,15.87-3.18S153,728.4,153,728.4Z"/><path class="cls-10" d="M118.11,653.78l4.76,44.46s28.57,25.4,22.22,27-9.52-4.76-9.52-4.76-11.11,11.11-17.46,4.76-22.23-66.67-22.23-66.67Z"/><path class="cls-3" d="M186.55,450.68c6.34-.23,13.12-.34,18.46,3.07a27.24,27.24,0,0,1,6.38,6.25c5.2,6.57,9.69,14.85,7.76,23l-2.24-.88a14.75,14.75,0,0,0,1.41,6.3c-.31-.92-1.37.57-1.09,1.49l2.48,8.12a7.63,7.63,0,0,0-9.74,5.81c-.28-9.42-1.26-20.23-8.9-25.74-3.86-2.78-8.73-3.63-13.43-4.39-4.33-.69-8.86-1.36-13,.07s-7.68,5.66-6.74,9.95c-1.91-.66-4,.67-5,2.46a12.9,12.9,0,0,0-1,5.92c-2,1.44-4.35-1.42-5.18-3.78-1.95-5.52-3.69-11.4-2.64-17.16s5.75-11.27,11.61-11.29A4.09,4.09,0,0,1,164.6,457l4.83-.4a5.32,5.32,0,0,1-3.19-1.69C168.18,457.07,183.42,450.79,186.55,450.68Z"/><path class="cls-4" d="M188,534.72s12.92-12.66,17.57-11.89,11,11.89,11,11.89,38.1,12.7,36.51,25.4-19,74.61-19,74.61-14.28,74.62-1.58,82.56-60.33,28.57-61.92,19.05-4.76-104.78,0-119.07S188,534.72,188,534.72Z"/><path class="cls-4" d="M132.39,560.12H112.76s-13.7,60.33-15.29,66.68-4.76,36.51-3.18,36.51,33.34-6.35,33.34-1.59Z"/><path class="cls-2" d="M133.06,709.51h75.15c7.33-33.74,7.94-66.33,0-97.47H133.06C145.18,642.62,145.94,675,133.06,709.51Z"/><path class="cls-10" d="M238.76,668.07l-22.23,9.53s-42.86,6.35-42.86-11.12,42.86-7.93,42.86-7.93L230.82,654Z"/><path class="cls-4" d="M234,550.6l19,4.76,14.29,84.14s4.76,22.22-3.17,23.81S234,677.6,234,677.6s-3.17-23.82-9.52-23.82l15.87-12.7-9.52-55.56Z"/><rect class="cls-2" x="503.4" y="713.16" width="104.17" height="1.49"/><rect class="cls-2" x="577.81" y="699.77" width="1.49" height="13.76"/><rect class="cls-2" x="532.42" y="699.77" width="1.49" height="13.76"/><rect class="cls-2" x="466.94" y="492.92" width="104.17" height="1.49"/><rect class="cls-2" x="495.22" y="494.04" width="1.49" height="13.76"/><rect class="cls-2" x="540.6" y="494.04" width="1.49" height="13.76"/><rect class="cls-2" x="362.04" y="639.5" width="104.17" height="1.49"/><rect class="cls-2" x="390.31" y="640.62" width="1.49" height="13.76"/><rect class="cls-2" x="435.7" y="640.62" width="1.49" height="13.76"/><rect class="cls-2" x="539.12" y="638.76" width="104.17" height="1.49"/><rect class="cls-2" x="567.39" y="639.87" width="1.49" height="13.76"/><rect class="cls-2" x="612.78" y="639.87" width="1.49" height="13.76"/><rect class="cls-2" x="414.12" y="564.35" width="104.17" height="1.49"/><rect class="cls-2" x="488.52" y="550.96" width="1.49" height="13.76"/><rect class="cls-2" x="443.14" y="550.96" width="1.49" height="13.76"/><ellipse class="cls-1" cx="210.54" cy="145.92" rx="117.48" ry="77.89" transform="translate(-12.47 271.96) rotate(-64.2)"/></svg>