<svg id="Layer_1" data-name="Layer 1" xmlns="http://www.w3.org/2000/svg" viewBox="0 0 2008.67 500"><defs><style>.cls-1{fill:#4949e4;}.cls-2{opacity:0.3;}.cls-3{font-size:444.86px;fill:#121d51;font-family:Quicksand-Bold, Quicksand;font-weight:700;letter-spacing:-0.06em;}.cls-4{letter-spacing:-0.06em;}</style></defs><title>vinyafy-logo</title><path class="cls-1" d="M251.5,226.57,148.13,123.29l88.13-88.13a21.48,21.48,0,0,1,7.1-4.71,12.65,12.65,0,0,1,2.49-.77,14.43,14.43,0,0,1,2.57-.51c.68-.09,1.37-.09,2.05-.17a4,4,0,0,1,1-.09v.17a21.35,21.35,0,0,1,15.24,6.08l88.13,88.13Z"/><path class="cls-1" d="M467.4,266.31,266.74,467a21.49,21.49,0,0,1-30.48,0L35.6,266.31a21.61,21.61,0,0,1,0-30.49L130,141.44,251.5,263,373,141.44l94.38,94.38A21.61,21.61,0,0,1,467.4,266.31Z"/><path class="cls-2" d="M251.5,28.91V226.57L148.13,123.29l88.13-88.13a21.48,21.48,0,0,1,7.1-4.71,12.65,12.65,0,0,1,2.49-.77,14.43,14.43,0,0,1,2.57-.51c.68-.09,1.37-.09,2.05-.17A4,4,0,0,1,251.5,28.91Z"/><path class="cls-2" d="M130,141.44,251.5,263V473.3A21.58,21.58,0,0,1,236.26,467L35.6,266.31a21.61,21.61,0,0,1,0-30.49Z"/><text class="cls-3" transform="translate(546.02 379.2)">vi<tspan class="cls-4" x="301.61" y="0">n</tspan><tspan x="537.83" y="0">yafy</tspan></text></svg>